<?xml version="1.0" standalone="no"?>
<!DOCTYPE svg PUBLIC "-//W3C//DTD SVG 20010904//EN"
 "http://www.w3.org/TR/2001/REC-SVG-20010904/DTD/svg10.dtd">
<svg version="1.0" xmlns="http://www.w3.org/2000/svg"
 width="2048.000000pt" height="2048.000000pt" viewBox="0 0 2048.000000 2048.000000"
 preserveAspectRatio="xMidYMid meet">

<g transform="translate(0.000000,2048.000000) scale(0.100000,-0.100000)"
fill="#000000" stroke="none">
<path d="M1660 6665 l0 -5045 2438 0 c1408 0 2528 4 2653 10 626 28 1199 151
1674 359 537 236 949 568 1235 996 231 346 353 675 417 1126 25 178 25 691 0
869 -51 359 -142 660 -281 925 -294 561 -741 929 -1399 1150 -71 24 -131 46
-133 48 -3 3 46 32 108 64 249 130 438 264 622 443 190 184 312 349 411 555
139 288 202 574 212 966 13 512 -61 914 -237 1274 -182 374 -439 646 -807 857
-414 237 -889 360 -1658 429 -94 9 -842 13 -2692 16 l-2563 4 0 -5046z m4678
3302 c490 -66 783 -213 966 -486 125 -186 171 -368 170 -666 -1 -308 -55 -515
-187 -709 -142 -210 -428 -375 -773 -445 -181 -37 -376 -42 -1534 -39 l-1105
3 -3 1183 -2 1183 1172 -4 c1020 -3 1189 -6 1296 -20z m267 -3866 c242 -36
427 -87 593 -166 431 -204 637 -530 683 -1080 19 -233 -2 -481 -58 -660 -54
-172 -182 -372 -310 -482 -161 -138 -353 -233 -593 -292 -314 -77 -444 -83
-1870 -79 l-1175 3 -3 1375 c-1 756 0 1381 3 1388 7 18 2607 12 2730 -7z"/>
</g>
</svg>
